<?xml version="1.0" standalone="no"?><!DOCTYPE svg PUBLIC "-//W3C//DTD SVG 1.1//EN" "http://www.w3.org/Graphics/SVG/1.1/DTD/svg11.dtd"><svg t="1602391076259" class="icon" viewBox="0 0 1024 1024" version="1.1" xmlns="http://www.w3.org/2000/svg" p-id="5869" xmlns:xlink="http://www.w3.org/1999/xlink" width="200" height="200"><defs><style type="text/css"></style></defs><path d="M514.56 947.2a432.64 432.64 0 1 1 432.64-432.64 433.152 433.152 0 0 1-432.64 432.64z m0-812.30336a379.66336 379.66336 0 1 0 379.66336 379.66336A380.09344 380.09344 0 0 0 514.56 134.89664z" fill="#2966C1" p-id="5870"></path><path d="M655.61088 563.61472h-114.35008v-65.536h114.35008a26.51648 26.51648 0 1 0 0-53.03808h-85.87776l98.01728-97.46432a26.41408 26.41408 0 0 0 0-37.504 26.76736 26.76736 0 0 0-37.70368 0L512.512 427.008 394.95168 310.07232a26.77248 26.77248 0 0 0-37.7088 0 26.4192 26.4192 0 0 0 0 37.504l98.0224 97.48992H373.5808a26.51648 26.51648 0 1 0 0 53.03808H487.936v65.536H373.5808a26.5216 26.5216 0 1 0 0 53.03808H487.936v80.34304a26.66496 26.66496 0 0 0 53.3248 0V616.6528h114.35008a26.5216 26.5216 0 1 0 0-53.03808z" fill="#FD9A16" p-id="5871"></path></svg>